# xmcd
#
# Track frame offsets: 
#        150
#        10107
#        22787
#        40135
#        57075
#        72537
#        95323
#        105495
#        120033
#        131470
#        148075
#        158285
#        173725
#        192365
#
# Disc length: 2798 seconds
#
# Revision: 2
# Processed by: cddbd v1.5PL3 Copyright (c) Steve Scherf et al.
# Submitted via: ExactAudioCopy v0.95a4
#
DISCID=a20aec0e
DTITLE=Werner Arthur Hoffmann - Wag den Sprung
DYEAR=1900
DGENRE=Christian Chorus
TTITLE0=Herr, in deinem Namen
TTITLE1=Lobe den Herrn ! Sing ihm dein Lied !
TTITLE2=So sind deine Worte
TTITLE3=Oeffne mir die Augen, Herr
TTITLE4=Hier ist Liebe
TTITLE5=Denn zu beneiden...
TTITLE6=Wenn die Herrlichkeit des Herrn erscheint
TTITLE7=Gib mir Klang und Farbe
TTITLE8=Ein junger Tag
TTITLE9=Wag den Sprung
TTITLE10=Kommt, stimmt doch mit uns ein
TTITLE11=Du allein, Herr
TTITLE12=Wenn Jesus kommt
TTITLE13=Deine Gnade
EXTD=
EXTT0=
EXTT1=
EXTT2=
EXTT3=
EXTT4=
EXTT5=
EXTT6=
EXTT7=
EXTT8=
EXTT9=
EXTT10=
EXTT11=
EXTT12=
EXTT13=
PLAYORDER=
